# xmcd CD database file
#
# Track frame offsets:
#	150
#	17967
#	34669
#	71312
#	96912
#	117920
#	132621
#	155807
#	189242
#	207810
#	221135
#
# Disc length: 3359 seconds
#
# Revision: 2
# Processed by: cddbd v1.5.2PL0 Copyright (c) Steve Scherf et al.
# Submitted via: CDex 1.51
#
DISCID=a00d1d0b
DTITLE=Various Artist - Mastercuts - Bar Grooves [CD 2)
DYEAR=2006
DGENRE=House
TTITLE0=Roy Ayers - Everybody Loves The Sunshine
TTITLE1=LL Cool J - Loungin'
TTITLE2=Donna Summer - I Feel Love
TTITLE3=Mr Fingers - Can You Feel It
TTITLE4=Grace Jones - Pull Up To The Bumper
TTITLE5=Rose Royce - Car Wash
TTITLE6=Stereo MC's - Connected
TTITLE7=Funkadelic - One Nation Under A Groove
TTITLE8=Orb - Little Fluffy Clouds
TTITLE9=Dusty Springfield - Am I The Same Girl
TTITLE10=Sterling Void - It's Alright
EXTD=YEAR: 2006
EXTT0=
EXTT1=
EXTT2=
EXTT3=
EXTT4=
EXTT5=
EXTT6=
EXTT7=
EXTT8=
EXTT9=
EXTT10=
PLAYORDER=
